<svg version="1.1" id="Layer_1" xmlns="http://www.w3.org/2000/svg" xmlns:xlink="http://www.w3.org/1999/xlink" x="0px" y="0px"
	 width="100%" viewBox="0 0 512 512" enable-background="new 0 0 512 512" xml:space="preserve">
<path fill="#000000" opacity="1.000000" stroke="none" 
	d="
M1.000000,360.000000 
	C1.000000,240.382217 1.000000,120.764442 1.000000,1.073331 
	C171.548035,1.073331 342.096100,1.073331 513.000000,1.073331 
	C513.000000,64.688240 513.000000,128.377136 512.750122,192.892334 
	C510.928345,194.046051 509.312622,194.239319 507.795532,194.734680 
	C505.877197,195.361053 504.062378,196.812592 502.162048,196.888657 
	C496.926727,197.098236 494.038727,193.763840 492.237732,185.948578 
	C498.428802,185.948578 504.540100,185.948578 510.702148,185.948578 
	C511.560699,181.408646 510.725952,177.265884 507.135651,175.231201 
	C497.796356,169.938477 485.985352,175.687881 484.094269,186.114670 
	C483.684570,188.373764 483.823914,190.785782 484.045776,193.095108 
	C484.527069,198.104492 489.816437,204.113693 494.269684,204.974594 
	C502.021393,206.473175 507.035736,204.304138 510.440186,198.175644 
	C510.949249,197.259216 512.129944,196.715912 513.000000,196.000000 
	C513.000000,301.619354 513.000000,407.238739 513.000000,512.929077 
	C342.457062,512.929077 171.914078,512.929077 1.000000,512.929077 
	C1.000000,466.311981 1.000000,419.622955 1.265995,372.129486 
	C4.158749,374.798401 7.423846,376.125519 11.982748,376.109528 
	C61.810928,375.934692 111.639954,376.000000 161.468750,376.000000 
	C186.299820,375.999969 211.131058,375.953461 235.961792,376.046204 
	C240.053665,376.061493 243.366882,374.762115 244.491898,370.858765 
	C245.855942,366.125946 245.196945,361.609039 241.329544,357.762817 
	C217.224762,333.790070 193.243423,309.693237 169.128418,285.730835 
	C167.473236,284.086121 165.121384,283.091522 162.996674,281.979645 
	C155.991669,278.313751 149.068817,280.103027 141.506409,282.963959 
	C144.836945,257.989868 137.347427,239.068176 113.337212,229.876587 
	C112.884506,220.566116 112.462311,211.883087 112.036964,203.135117 
	C123.209343,202.538498 133.239639,199.786621 141.822891,193.500900 
	C150.398773,187.220551 156.369080,178.848724 158.597977,168.000793 
	C166.494461,168.000793 174.316437,167.929092 182.134537,168.070465 
	C183.456924,168.094406 184.732162,169.144272 186.084137,169.525055 
	C187.676132,169.973450 189.704636,170.942596 190.857803,170.350266 
	C192.274292,169.622681 193.746887,167.566971 193.855637,165.992828 
	C194.222290,160.685318 194.206421,155.325928 193.932816,150.007172 
	C193.686172,145.212799 190.759521,143.803009 186.499207,145.928314 
	C185.386246,146.483536 184.087158,146.929810 182.862823,146.957825 
	C165.602966,147.352646 148.341293,147.667465 131.079971,147.997528 
	C130.080429,148.016647 129.080200,147.998352 128.080292,148.000275 
	C121.068657,148.013748 113.838913,147.439972 109.890045,155.719254 
	C105.496307,143.757553 96.641785,138.826721 86.238983,141.306778 
	C76.352127,143.663849 69.931351,149.837143 70.986626,163.433502 
	C71.559013,170.808258 79.469276,178.673492 86.875565,178.988937 
	C92.641014,179.234497 98.403595,179.122177 103.184212,175.266403 
	C107.783966,171.556549 109.714455,166.369385 110.269035,160.542709 
	C109.794098,161.173920 109.319168,161.805115 108.844231,162.436325 
	C110.753677,164.486862 112.663124,166.537399 114.572571,168.587921 
	C115.228546,167.921677 115.884514,167.255432 116.540489,166.589188 
	C116.026245,168.768997 115.889137,171.137146 114.915161,173.087357 
	C113.166420,176.588852 112.815643,181.309067 106.809685,181.187119 
	C98.736061,181.023163 90.646950,181.734344 82.561882,181.986282 
	C75.988998,182.191101 72.324905,184.821533 71.032494,191.255600 
	C70.452957,194.140747 70.991142,197.246933 70.992676,200.252838 
	C71.001526,217.610245 71.402985,234.979370 70.895874,252.321869 
	C70.348396,271.045166 68.948570,289.743561 68.000061,307.005707 
	C60.980083,310.301788 55.067001,312.215363 50.169250,315.598755 
	C44.198997,319.722931 38.935890,324.927765 33.627934,329.941528 
	C23.491999,339.515594 13.552943,349.297913 3.483194,358.942657 
	C2.875426,359.524780 1.837667,359.657928 1.000000,360.000000 
M289.458313,204.000000 
	C292.575806,204.000000 295.693298,204.000000 298.801819,204.000000 
	C298.977936,201.293808 299.117493,199.149200 299.312592,196.150818 
	C305.627472,204.310684 314.139191,207.469345 319.955231,204.487946 
	C325.065186,201.868500 327.425964,197.559402 326.173096,193.138535 
	C315.642792,199.614517 309.110748,197.107452 308.340424,185.944931 
	C314.481750,185.944931 320.603455,185.944931 326.692657,185.944931 
	C327.164917,179.228882 324.366058,175.097092 318.893005,174.034790 
	C308.298767,171.978485 301.457855,177.250565 298.816010,187.707001 
	C296.807434,195.657043 290.813385,203.483826 280.992432,200.581909 
	C280.992432,187.993057 280.992432,175.626801 280.992432,163.312531 
	C276.957855,163.312531 272.561523,163.312531 269.286133,163.312531 
	C269.531006,170.223526 269.953033,176.841751 269.947845,183.459625 
	C269.942535,190.228317 269.518372,196.996689 269.269196,204.000000 
	C275.171295,204.000000 281.821259,204.000000 289.458313,204.000000 
M394.512970,320.000153 
	C393.693604,321.343719 392.283264,322.646362 392.186829,324.039948 
	C392.022675,326.411682 392.919586,328.837036 392.956635,331.246216 
	C393.074036,338.884399 393.442810,346.560913 392.835510,354.152313 
	C392.465698,358.774811 395.004700,360.198456 398.177673,361.613586 
	C399.481689,362.195160 400.966553,362.372833 402.370667,362.728210 
	C409.584900,364.554108 417.518768,361.052765 421.129272,354.451660 
	C424.928741,347.505066 423.687592,338.993256 418.326385,333.791992 
	C413.567261,329.174805 408.500885,330.878113 403.006409,333.141083 
	C403.006409,327.942474 403.006409,323.169342 403.006409,317.472565 
	C400.070953,318.412262 397.704865,319.169708 394.512970,320.000153 
M280.954529,283.965332 
	C283.242798,284.222137 285.473907,278.700745 287.883850,283.885132 
	C287.968903,284.068054 289.109222,283.844971 289.723755,283.682617 
	C292.483612,282.953552 295.231171,282.177979 297.274384,281.614594 
	C296.825134,276.535767 296.216217,271.878479 296.049774,267.205444 
	C295.842407,261.383148 296.000000,255.547836 296.000000,249.718140 
	C296.000000,246.177399 296.000000,242.636673 296.000000,238.430405 
	C291.766205,240.001617 288.474945,241.223038 284.860413,242.564438 
	C285.626190,245.991196 286.373291,249.334503 287.190735,252.992386 
	C285.149536,252.545624 283.921875,252.126328 282.668854,252.026794 
	C273.640930,251.309769 269.133362,254.975769 266.939911,266.514618 
	C265.198303,275.676575 268.965759,284.800446 280.954529,283.965332 
M399.000031,186.710739 
	C398.808807,196.014633 398.617615,205.318542 398.425446,214.668488 
	C401.468781,214.668488 405.663116,214.668488 410.025513,214.668488 
	C409.324310,211.090820 408.689911,207.854034 408.029968,204.486786 
	C420.861420,206.453415 425.650696,203.609131 428.850128,191.122665 
	C431.257385,181.727844 424.784363,173.840088 415.225677,174.072403 
	C413.033325,174.125671 410.010559,176.272629 408.832733,175.424545 
	C404.160065,172.060120 400.936737,176.271103 397.229004,176.370224 
	C397.873108,179.789948 398.436554,182.781494 399.000031,186.710739 
M325.073059,344.299744 
	C325.579895,338.186249 321.308441,334.773621 317.056519,332.240662 
	C311.263611,328.789734 302.179810,331.333466 297.938599,336.597504 
	C294.149933,341.299866 293.917023,352.026733 297.515076,356.995697 
	C301.303558,362.227661 309.597870,364.560120 316.546875,361.783051 
	C322.562653,359.378906 326.374512,352.243530 325.073059,344.299744 
M364.493591,349.005402 
	C361.649200,352.487762 360.384094,356.226471 363.609802,360.053162 
	C366.529236,363.516541 371.751648,364.350342 375.630920,361.609070 
	C377.470581,360.309052 378.118286,361.395294 379.531952,361.640778 
	C382.524353,362.160400 385.695862,361.749786 388.769989,361.463654 
	C388.969360,361.445099 389.270691,359.157959 388.976135,358.075317 
	C388.632874,356.813995 387.181976,355.753326 387.094757,354.541992 
	C386.832672,350.902466 386.928741,347.230286 387.013367,343.573822 
	C387.266907,332.619507 379.234344,329.810883 370.890045,331.177734 
	C365.240295,332.103149 362.570831,336.301392 363.584137,339.881683 
	C367.071411,339.047638 370.652710,337.258911 373.833069,337.805054 
	C375.545532,338.099091 376.570892,342.394623 377.779816,344.648956 
	C372.661713,346.167938 368.857513,347.296997 364.493591,349.005402 
M324.268158,264.999847 
	C325.492096,264.865753 326.716034,264.731659 327.817413,264.611023 
	C328.752380,258.827332 326.250214,255.057312 321.649872,253.104599 
	C314.727020,250.166046 309.209686,252.518372 305.042542,256.569397 
	C300.825745,260.668732 299.639740,270.470734 301.921082,275.923615 
	C304.316589,281.649506 308.501892,283.909363 316.252960,283.915436 
	C324.024261,283.921539 329.828461,277.340302 328.462555,272.143921 
	C324.438690,273.357300 320.235260,275.949219 316.461426,275.428345 
	C311.717377,274.773651 309.637054,270.146118 309.723999,265.000000 
	C314.334595,265.000000 318.828400,265.000000 324.268158,264.999847 
M366.990234,186.456833 
	C364.306122,195.055008 369.710754,203.312119 375.805878,204.679993 
	C383.612000,206.431870 393.524475,204.803726 394.534912,193.830719 
	C390.485138,194.742218 386.147797,196.854141 382.161987,196.323868 
	C377.338593,195.682175 375.895966,190.852615 375.138947,185.841797 
	C381.641388,185.841797 387.752350,185.841797 395.597198,185.841797 
	C393.333832,181.694839 392.392517,177.489990 389.782684,175.643784 
	C381.240601,169.600983 369.194733,175.176468 366.990234,186.456833 
M450.208923,196.994720 
	C443.341888,196.772614 439.701630,192.705109 440.640350,185.835587 
	C446.644562,185.835587 452.709625,185.835587 458.870667,185.835587 
	C455.869995,174.878555 451.834595,172.120636 442.086975,174.035416 
	C434.013092,175.621414 429.742767,183.340836 431.005981,194.066437 
	C431.855621,201.280350 438.332367,205.428665 448.075836,204.999588 
	C453.701447,204.751846 458.371857,199.526779 458.576691,192.465683 
	C455.822235,194.103058 453.417938,195.532272 450.208923,196.994720 
M353.000000,258.555481 
	C352.682465,257.052399 352.881287,254.898712 351.954559,254.163223 
	C348.633484,251.527512 338.526947,250.941223 335.212921,254.130814 
	C329.964325,259.182281 329.474030,263.366791 334.241425,270.518951 
	C330.040680,272.611481 332.540314,276.419250 332.138824,279.415192 
	C332.010162,280.375397 333.308868,282.255096 334.264526,282.498840 
	C337.399994,283.298523 340.700165,284.035126 343.896332,283.891327 
	C350.314972,283.602600 354.395874,280.510773 354.989136,276.286041 
	C355.791687,270.570923 353.871002,266.775726 348.597168,264.290253 
	C346.271576,263.194244 343.598785,262.795746 341.357483,261.576996 
	C340.265167,260.983032 339.801331,259.233337 339.053040,258.006805 
	C340.221588,257.338715 341.790405,255.830658 342.483307,256.160797 
	C344.522522,257.132477 346.304871,258.733246 348.013641,260.280090 
	C349.391815,261.527679 350.516998,263.054779 351.754456,264.457855 
	C352.106049,264.236633 352.457642,264.015442 352.809235,263.794220 
	C352.872803,262.344360 352.936401,260.894501 353.000000,258.555481 
M266.999329,343.628632 
	C264.658203,353.937164 269.159943,360.586365 277.112793,362.595642 
	C281.869415,363.797424 286.458099,362.892639 289.815063,359.450226 
	C292.102203,357.104858 294.201385,353.905731 292.513397,350.349365 
	C289.966095,352.007233 287.827942,354.334259 285.333618,354.815643 
	C280.959259,355.659882 276.160797,351.185669 275.002747,346.189240 
	C273.819977,341.086090 275.598480,336.578583 279.297760,335.303711 
	C282.620148,334.158691 286.847229,336.996948 289.050110,341.695557 
	C289.493408,342.640991 290.411407,343.363831 291.999969,345.239502 
	C291.999969,341.507202 291.682495,339.300507 292.066010,337.223236 
	C292.865997,332.890076 290.073578,331.575012 286.904449,331.116760 
	C279.677063,330.071716 269.031372,332.859009 266.999329,343.628632 
M330.000000,342.497620 
	C330.000000,348.854858 330.000000,355.212128 330.000000,361.779816 
	C333.142242,361.779816 336.897217,361.779816 340.227386,361.779816 
	C340.227386,347.093567 340.227386,332.627258 340.227386,317.122528 
	C335.618286,318.762360 331.910309,319.844177 328.539185,321.580200 
	C328.115845,321.798218 329.489868,325.459564 329.981598,327.537201 
	C330.093414,328.009735 329.999847,328.530975 329.999878,329.029816 
	C330.000031,333.186737 329.999969,337.343628 330.000000,342.497620 
M357.000000,346.451324 
	C357.000000,337.017303 357.000000,327.583282 357.000000,317.270447 
	C353.033447,318.644318 349.474609,319.206299 346.889221,321.098419 
	C345.836975,321.868561 346.911469,325.527466 346.993500,327.872864 
	C347.028442,328.871582 346.999969,329.872498 346.999969,330.872437 
	C347.000031,341.093536 347.000000,351.314636 347.000000,361.770081 
	C350.072296,361.770081 353.827911,361.770081 357.920776,361.770081 
	C357.604492,356.845276 357.302246,352.139160 357.000000,346.451324 
M345.130646,179.682312 
	C345.130646,187.628815 345.130646,195.575302 345.130646,204.000000 
	C347.348663,204.000000 349.472809,204.000000 351.596924,204.000000 
	C353.662445,204.000000 355.727997,204.000000 358.017395,204.000000 
	C352.822937,190.174942 355.039642,184.070938 365.676025,181.391464 
	C365.676025,178.952728 365.676025,176.543289 365.676025,173.283585 
	C362.238708,174.163391 358.146210,176.490906 356.617065,175.358124 
	C352.329468,172.181854 349.333099,175.713333 345.840546,176.109695 
	C345.315308,176.169281 344.992615,178.013428 345.130646,179.682312 
M463.013489,182.659561 
	C463.013489,189.667755 463.013489,196.675949 463.013489,203.764877 
	C466.574951,203.764877 470.661255,203.764877 474.032867,203.764877 
	C473.678070,198.888443 473.420959,194.222305 472.981537,189.573410 
	C472.266205,182.005829 479.141754,183.625198 482.661652,181.528503 
	C482.661652,178.926071 482.661652,176.519836 482.661652,173.293182 
	C479.124115,174.328873 476.125183,175.206879 474.090820,175.802475 
	C469.030426,172.370453 465.104156,175.991394 460.561768,176.430496 
	C461.564087,178.642670 462.280090,180.222900 463.013489,182.659561 
M435.930634,325.696686 
	C435.665131,325.276642 435.210358,324.876770 435.163086,324.433441 
	C434.616730,319.309601 430.698425,319.388062 427.464539,320.305328 
	C426.192657,320.666077 425.107697,324.147491 425.208832,326.143341 
	C425.296692,327.877289 427.177094,329.520416 428.383759,331.386932 
	C427.997772,332.657928 427.393463,334.647675 426.592316,337.285553 
	C433.525452,335.929291 434.522400,331.027252 435.930634,325.696686 
M448.059479,168.197647 
	C447.604309,165.865677 447.149170,163.533691 446.700165,161.233276 
	C443.691528,161.233276 440.961365,161.233276 438.231232,161.233276 
	C437.911560,161.587677 437.591888,161.942093 437.272186,162.296494 
	C440.260590,165.517654 442.939423,169.140961 446.373016,171.783691 
	C447.994720,173.031860 449.812531,171.487564 448.059479,168.197647 
z"/>
<path fill="#8C52FF" opacity="1.000000" stroke="none" 
	d="
M1.000000,360.460632 
	C1.837667,359.657928 2.875426,359.524780 3.483194,358.942657 
	C13.552943,349.297913 23.491999,339.515594 33.627934,329.941528 
	C38.935890,324.927765 44.198997,319.722931 50.169250,315.598755 
	C55.067001,312.215363 60.980083,310.301788 68.000061,307.005707 
	C68.948570,289.743561 70.348396,271.045166 70.895874,252.321869 
	C71.402985,234.979370 71.001526,217.610245 70.992676,200.252838 
	C70.991142,197.246933 70.452957,194.140747 71.032494,191.255600 
	C72.324905,184.821533 75.988998,182.191101 82.561882,181.986282 
	C90.646950,181.734344 98.736061,181.023163 106.809685,181.187119 
	C112.815643,181.309067 113.166420,176.588852 114.915161,173.087357 
	C115.889137,171.137146 116.026245,168.768997 116.540489,166.589188 
	C115.884514,167.255432 115.228546,167.921677 114.572571,168.587921 
	C112.663124,166.537399 110.753677,164.486862 108.844231,162.436325 
	C109.319168,161.805115 109.794098,161.173920 110.269035,160.542709 
	C109.714455,166.369385 107.783966,171.556549 103.184212,175.266403 
	C98.403595,179.122177 92.641014,179.234497 86.875565,178.988937 
	C79.469276,178.673492 71.559013,170.808258 70.986626,163.433502 
	C69.931351,149.837143 76.352127,143.663849 86.238983,141.306778 
	C96.641785,138.826721 105.496307,143.757553 109.890045,155.719254 
	C113.838913,147.439972 121.068657,148.013748 128.080292,148.000275 
	C129.080200,147.998352 130.080429,148.016647 131.079971,147.997528 
	C148.341293,147.667465 165.602966,147.352646 182.862823,146.957825 
	C184.087158,146.929810 185.386246,146.483536 186.499207,145.928314 
	C190.759521,143.803009 193.686172,145.212799 193.932816,150.007172 
	C194.206421,155.325928 194.222290,160.685318 193.855637,165.992828 
	C193.746887,167.566971 192.274292,169.622681 190.857803,170.350266 
	C189.704636,170.942596 187.676132,169.973450 186.084137,169.525055 
	C184.732162,169.144272 183.456924,168.094406 182.134537,168.070465 
	C174.316437,167.929092 166.494461,168.000793 158.597977,168.000793 
	C156.369080,178.848724 150.398773,187.220551 141.822891,193.500900 
	C133.239639,199.786621 123.209343,202.538498 112.036964,203.135117 
	C112.462311,211.883087 112.884506,220.566116 113.337212,229.876587 
	C137.347427,239.068176 144.836945,257.989868 141.506409,282.963959 
	C149.068817,280.103027 155.991669,278.313751 162.996674,281.979645 
	C165.121384,283.091522 167.473236,284.086121 169.128418,285.730835 
	C193.243423,309.693237 217.224762,333.790070 241.329544,357.762817 
	C245.196945,361.609039 245.855942,366.125946 244.491898,370.858765 
	C243.366882,374.762115 240.053665,376.061493 235.961792,376.046204 
	C211.131058,375.953461 186.299820,375.999969 161.468750,376.000000 
	C111.639954,376.000000 61.810928,375.934692 11.982748,376.109528 
	C7.423846,376.125519 4.158749,374.798401 1.265995,371.662506 
	C1.000000,368.307098 1.000000,364.614166 1.000000,360.460632 
M230.249847,367.000000 
	C232.329865,367.000000 234.409897,367.000000 237.743164,367.000000 
	C232.210999,361.555969 227.555756,357.098663 223.044601,352.500000 
	C218.722534,348.094116 214.653091,343.438232 210.285172,339.080078 
	C205.086487,333.893005 199.642456,328.952850 194.389679,323.818756 
	C189.656601,319.192627 185.018143,314.468872 180.374969,309.751770 
	C175.560669,304.860840 170.433578,300.218750 166.101166,294.929016 
	C161.693710,289.547699 154.558929,286.923950 148.210831,290.033875 
	C143.895142,292.148102 140.085007,295.271057 135.852219,297.583069 
	C129.084625,301.279602 122.077972,304.538391 115.309708,308.233795 
	C105.070610,313.824158 94.873116,319.159943 82.571281,318.077881 
	C77.279541,317.612457 71.858559,317.539001 66.598534,318.157257 
	C62.899055,318.592041 58.755344,319.697998 55.897209,321.909454 
	C50.033726,326.446228 44.860756,331.885345 39.480858,337.033783 
	C35.948608,340.414093 32.630493,344.019196 29.077122,347.376099 
	C22.462454,353.625031 15.746094,359.766327 7.941890,367.000000 
	C82.829826,367.000000 156.069809,367.000000 230.249847,367.000000 
M108.744072,195.000793 
	C110.833450,194.669266 112.924400,194.043701 115.011948,194.054901 
	C126.706093,194.117554 135.661163,188.629837 143.162888,180.278641 
	C146.739288,176.297272 148.814575,171.555893 150.074509,165.858704 
	C144.944290,171.353043 140.869843,176.705231 135.829300,180.895203 
	C127.156136,188.104782 116.182671,189.044724 105.489006,189.898712 
	C98.703239,190.440613 91.837212,189.905457 85.010704,190.036865 
	C81.082756,190.112442 78.269936,191.105164 78.893410,196.327515 
	C79.944618,205.132599 81.077988,214.035965 80.851074,222.863922 
	C80.312531,243.815460 79.098564,264.752655 77.932030,285.683105 
	C77.596069,291.711060 76.952126,297.806519 75.549469,303.655212 
	C74.832603,306.644348 75.648148,308.110382 77.906807,308.150269 
	C79.242317,308.173859 81.656631,306.102875 81.813553,304.765839 
	C83.417740,291.097351 84.699364,277.390015 85.978500,263.684906 
	C86.452179,258.609802 86.453224,253.483444 87.083900,248.432144 
	C87.752319,243.078583 91.512230,239.894760 96.831131,240.036026 
	C107.481339,240.318939 115.261024,246.283829 122.138435,253.586349 
	C127.896362,259.700195 126.916199,267.868927 127.917618,275.345062 
	C128.399872,278.945404 127.709641,282.701111 128.172073,286.306702 
	C128.340332,287.618652 130.314056,288.699036 131.464035,289.885071 
	C132.308807,288.695465 133.893845,287.496155 133.878418,286.317810 
	C133.776917,278.567200 134.177551,270.662384 132.764328,263.116943 
	C131.274155,255.160645 128.035858,247.652206 119.631554,243.757904 
	C115.246201,241.725861 111.254654,238.775894 107.284149,235.960037 
	C106.163788,235.165482 105.162224,233.407333 105.098656,232.044830 
	C104.597153,221.296661 104.172081,210.537140 104.180122,199.781464 
	C104.181320,198.188797 106.577812,196.597931 108.744072,195.000793 
M120.907204,292.513977 
	C120.271461,284.859131 119.835457,277.179840 118.902527,269.561371 
	C118.524727,266.476196 117.935349,262.612671 115.925087,260.687805 
	C110.650536,255.637375 104.541634,251.458328 98.625237,246.822403 
	C96.820702,248.841293 95.303749,249.736679 95.214264,250.757233 
	C93.516739,270.116730 91.987671,289.491028 90.425072,308.843475 
	C100.623466,308.458099 107.672607,301.498993 116.004623,297.424103 
	C117.882607,296.505707 119.332848,294.712646 120.907204,292.513977 
M81.985672,166.483917 
	C84.316002,167.987854 86.470734,170.229309 89.014908,170.835068 
	C93.647232,171.938004 99.012291,168.300552 100.664932,163.824799 
	C102.157875,159.781540 100.075615,153.476074 96.491096,151.185684 
	C91.789368,148.181427 87.217339,148.054031 84.047127,151.546295 
	C79.089005,157.008102 77.846962,159.738922 81.985672,166.483917 
M175.488998,160.000000 
	C178.591187,160.000000 181.693359,160.000000 185.064774,160.000000 
	C184.929214,158.033936 184.831635,156.618607 184.771729,155.749832 
	C173.883560,155.749832 163.357880,155.749832 152.832184,155.749832 
	C152.799377,156.220444 152.766571,156.691071 152.733780,157.161682 
	C159.722168,159.786880 167.095413,160.039673 175.488998,160.000000 
M124.876228,157.000000 
	C123.598801,157.064224 122.321365,157.128448 121.043938,157.192657 
	C140.902557,159.524933 140.902557,159.524933 144.722824,157.000000 
	C139.260620,157.000000 132.524017,157.000000 124.876228,157.000000 
z"/>
<path fill="#8C52FF" opacity="1.000000" stroke="none" 
	d="
M513.000000,195.625000 
	C512.129944,196.715912 510.949249,197.259216 510.440186,198.175644 
	C507.035736,204.304138 502.021393,206.473175 494.269684,204.974594 
	C489.816437,204.113693 484.527069,198.104492 484.045776,193.095108 
	C483.823914,190.785782 483.684570,188.373764 484.094269,186.114670 
	C485.985352,175.687881 497.796356,169.938477 507.135651,175.231201 
	C510.725952,177.265884 511.560699,181.408646 510.702148,185.948578 
	C504.540100,185.948578 498.428802,185.948578 492.237732,185.948578 
	C494.038727,193.763840 496.926727,197.098236 502.162048,196.888657 
	C504.062378,196.812592 505.877197,195.361053 507.795532,194.734680 
	C509.312622,194.239319 510.928345,194.046051 512.750122,193.359314 
	C513.000000,193.750000 513.000000,194.500000 513.000000,195.625000 
M492.341675,182.740692 
	C495.192932,182.740692 498.044189,182.740692 500.895416,182.740692 
	C501.147766,182.289337 501.400085,181.837967 501.652405,181.386612 
	C500.054077,179.936386 498.163116,177.099838 496.926056,177.360962 
	C495.072418,177.752243 493.677979,180.318878 492.341675,182.740692 
z"/>
<path fill="#8C52FF" opacity="1.000000" stroke="none" 
	d="
M288.964783,204.000000 
	C281.821259,204.000000 275.171295,204.000000 269.269196,204.000000 
	C269.518372,196.996689 269.942535,190.228317 269.947845,183.459625 
	C269.953033,176.841751 269.531006,170.223526 269.286133,163.312531 
	C272.561523,163.312531 276.957855,163.312531 280.992432,163.312531 
	C280.992432,175.626801 280.992432,187.993057 280.992432,200.581909 
	C290.813385,203.483826 296.807434,195.657043 298.816010,187.707001 
	C301.457855,177.250565 308.298767,171.978485 318.893005,174.034790 
	C324.366058,175.097092 327.164917,179.228882 326.692657,185.944931 
	C320.603455,185.944931 314.481750,185.944931 308.340424,185.944931 
	C309.110748,197.107452 315.642792,199.614517 326.173096,193.138535 
	C327.425964,197.559402 325.065186,201.868500 319.955231,204.487946 
	C314.139191,207.469345 305.627472,204.310684 299.312592,196.150818 
	C299.117493,199.149200 298.977936,201.293808 298.801819,204.000000 
	C295.693298,204.000000 292.575806,204.000000 288.964783,204.000000 
M309.147278,182.966385 
	C311.698853,182.966385 314.250427,182.966385 316.802002,182.966385 
	C317.073975,182.504410 317.345917,182.042419 317.617889,181.580444 
	C315.887787,180.060699 314.157654,178.540955 312.427551,177.021210 
	C311.066620,178.928848 309.705719,180.836487 309.147278,182.966385 
z"/>
<path fill="#8C52FF" opacity="1.000000" stroke="none" 
	d="
M394.925842,319.963654 
	C397.704865,319.169708 400.070953,318.412262 403.006409,317.472565 
	C403.006409,323.169342 403.006409,327.942474 403.006409,333.141083 
	C408.500885,330.878113 413.567261,329.174805 418.326385,333.791992 
	C423.687592,338.993256 424.928741,347.505066 421.129272,354.451660 
	C417.518768,361.052765 409.584900,364.554108 402.370667,362.728210 
	C400.966553,362.372833 399.481689,362.195160 398.177673,361.613586 
	C395.004700,360.198456 392.465698,358.774811 392.835510,354.152313 
	C393.442810,346.560913 393.074036,338.884399 392.956635,331.246216 
	C392.919586,328.837036 392.022675,326.411682 392.186829,324.039948 
	C392.283264,322.646362 393.693604,321.343719 394.925842,319.963654 
M403.000000,346.628235 
	C403.007050,349.271271 402.558990,352.027740 403.179810,354.517761 
	C403.599884,356.202698 405.523834,357.512695 406.775116,358.990356 
	C408.509369,357.516937 410.658508,356.313446 411.847748,354.485504 
	C412.815033,352.998566 412.675873,350.769592 412.950378,348.858612 
	C413.622925,344.176941 410.988464,339.088074 406.904053,337.086212 
	C403.126251,338.839386 402.614716,342.070557 403.000000,346.628235 
z"/>
<path fill="#8C52FF" opacity="1.000000" stroke="none" 
	d="
M280.539917,283.980377 
	C268.965759,284.800446 265.198303,275.676575 266.939911,266.514618 
	C269.133362,254.975769 273.640930,251.309769 282.668854,252.026794 
	C283.921875,252.126328 285.149536,252.545624 287.190735,252.992386 
	C286.373291,249.334503 285.626190,245.991196 284.860413,242.564438 
	C288.474945,241.223038 291.766205,240.001617 296.000000,238.430405 
	C296.000000,242.636673 296.000000,246.177399 296.000000,249.718140 
	C296.000000,255.547836 295.842407,261.383148 296.049774,267.205444 
	C296.216217,271.878479 296.825134,276.535767 297.274384,281.614594 
	C295.231171,282.177979 292.483612,282.953552 289.723755,283.682617 
	C289.109222,283.844971 287.968903,284.068054 287.883850,283.885132 
	C285.473907,278.700745 283.242798,284.222137 280.539917,283.980377 
M278.932251,275.399445 
	C282.591675,278.845001 286.160217,278.104584 286.713074,273.235657 
	C287.220551,268.766510 286.548248,264.095245 285.845428,259.599030 
	C285.638641,258.276123 283.618591,256.415710 282.318970,256.321136 
	C281.080902,256.231079 279.175079,257.849854 278.472656,259.193115 
	C275.796021,264.311676 275.588196,269.623840 278.932251,275.399445 
z"/>
<path fill="#8C52FF" opacity="1.000000" stroke="none" 
	d="
M399.000000,186.241882 
	C398.436554,182.781494 397.873108,179.789948 397.229004,176.370224 
	C400.936737,176.271103 404.160065,172.060120 408.832733,175.424545 
	C410.010559,176.272629 413.033325,174.125671 415.225677,174.072403 
	C424.784363,173.840088 431.257385,181.727844 428.850128,191.122665 
	C425.650696,203.609131 420.861420,206.453415 408.029968,204.486786 
	C408.689911,207.854034 409.324310,211.090820 410.025513,214.668488 
	C405.663116,214.668488 401.468781,214.668488 398.425446,214.668488 
	C398.617615,205.318542 398.808807,196.014633 399.000000,186.241882 
M418.999023,189.614838 
	C417.896973,186.805618 417.273834,183.652069 415.566772,181.277847 
	C413.611328,178.558167 410.152283,178.584091 409.573273,182.158081 
	C408.716156,187.448486 408.604950,193.054932 409.388733,198.347260 
	C409.910339,201.869446 414.765808,202.093323 416.537781,198.733887 
	C417.854889,196.236847 418.213409,193.234207 418.999023,189.614838 
z"/>
<path fill="#8C52FF" opacity="1.000000" stroke="none" 
	d="
M325.292114,344.655640 
	C326.374512,352.243530 322.562653,359.378906 316.546875,361.783051 
	C309.597870,364.560120 301.303558,362.227661 297.515076,356.995697 
	C293.917023,352.026733 294.149933,341.299866 297.938599,336.597504 
	C302.179810,331.333466 311.263611,328.789734 317.056519,332.240662 
	C321.308441,334.773621 325.579895,338.186249 325.292114,344.655640 
M306.260010,355.737640 
	C310.801453,360.306885 313.449036,359.897919 314.604736,353.531586 
	C315.427887,348.997009 314.606903,344.083405 313.980530,339.411224 
	C313.769592,337.837952 311.899872,336.487061 310.788300,335.034546 
	C309.320587,336.393677 306.765381,337.621460 306.582458,339.135773 
	C305.952271,344.352417 306.150787,349.669220 306.260010,355.737640 
z"/>
<path fill="#8C52FF" opacity="1.000000" stroke="none" 
	d="
M364.773438,348.715729 
	C368.857513,347.296997 372.661713,346.167938 377.779816,344.648956 
	C376.570892,342.394623 375.545532,338.099091 373.833069,337.805054 
	C370.652710,337.258911 367.071411,339.047638 363.584137,339.881683 
	C362.570831,336.301392 365.240295,332.103149 370.890045,331.177734 
	C379.234344,329.810883 387.266907,332.619507 387.013367,343.573822 
	C386.928741,347.230286 386.832672,350.902466 387.094757,354.541992 
	C387.181976,355.753326 388.632874,356.813995 388.976135,358.075317 
	C389.270691,359.157959 388.969360,361.445099 388.769989,361.463654 
	C385.695862,361.749786 382.524353,362.160400 379.531952,361.640778 
	C378.118286,361.395294 377.470581,360.309052 375.630920,361.609070 
	C371.751648,364.350342 366.529236,363.516541 363.609802,360.053162 
	C360.384094,356.226471 361.649200,352.487762 364.773438,348.715729 
M375.978790,355.991974 
	C376.353882,353.738037 376.728943,351.484100 377.104034,349.230164 
	C376.469604,349.030548 375.835175,348.830902 375.200745,348.631287 
	C374.143066,350.634338 373.085388,352.637390 372.027679,354.640411 
	C373.093781,355.179901 374.159912,355.719421 375.978790,355.991974 
z"/>
<path fill="#8C52FF" opacity="1.000000" stroke="none" 
	d="
M323.795166,264.999939 
	C318.828400,265.000000 314.334595,265.000000 309.723999,265.000000 
	C309.637054,270.146118 311.717377,274.773651 316.461426,275.428345 
	C320.235260,275.949219 324.438690,273.357300 328.462555,272.143921 
	C329.828461,277.340302 324.024261,283.921539 316.252960,283.915436 
	C308.501892,283.909363 304.316589,281.649506 301.921082,275.923615 
	C299.639740,270.470734 300.825745,260.668732 305.042542,256.569397 
	C309.209686,252.518372 314.727020,250.166046 321.649872,253.104599 
	C326.250214,255.057312 328.752380,258.827332 327.817413,264.611023 
	C326.716034,264.731659 325.492096,264.865753 323.795166,264.999939 
M312.099609,256.410309 
	C311.092804,258.119781 310.085999,259.829224 308.943665,261.768860 
	C312.337006,261.768860 315.071533,261.768860 317.914154,261.768860 
	C317.910004,258.086578 316.325073,256.183594 312.099609,256.410309 
z"/>
<path fill="#8C52FF" opacity="1.000000" stroke="none" 
	d="
M366.994781,186.040955 
	C369.194733,175.176468 381.240601,169.600983 389.782684,175.643784 
	C392.392517,177.489990 393.333832,181.694839 395.597198,185.841797 
	C387.752350,185.841797 381.641388,185.841797 375.138947,185.841797 
	C375.895966,190.852615 377.338593,195.682175 382.161987,196.323868 
	C386.147797,196.854141 390.485138,194.742218 394.534912,193.830719 
	C393.524475,204.803726 383.612000,206.431870 375.805878,204.679993 
	C369.710754,203.312119 364.306122,195.055008 366.994781,186.040955 
M383.727936,182.674561 
	C382.367828,180.791534 381.007721,178.908508 379.647614,177.025467 
	C377.938293,178.610107 376.228973,180.194763 374.519653,181.779404 
	C374.767426,182.171860 375.015198,182.564331 375.263000,182.956787 
	C377.818756,182.956787 380.374512,182.956787 383.727936,182.674561 
z"/>
<path fill="#8C52FF" opacity="1.000000" stroke="none" 
	d="
M450.611298,196.978104 
	C453.417938,195.532272 455.822235,194.103058 458.576691,192.465683 
	C458.371857,199.526779 453.701447,204.751846 448.075836,204.999588 
	C438.332367,205.428665 431.855621,201.280350 431.005981,194.066437 
	C429.742767,183.340836 434.013092,175.621414 442.086975,174.035416 
	C451.834595,172.120636 455.869995,174.878555 458.870667,185.835587 
	C452.709625,185.835587 446.644562,185.835587 440.640350,185.835587 
	C439.701630,192.705109 443.341888,196.772614 450.611298,196.978104 
M448.445770,182.832535 
	C447.061035,180.897186 445.676300,178.961838 444.291565,177.026505 
	C442.612701,178.537445 440.933838,180.048401 439.254974,181.559341 
	C439.577271,182.032669 439.899597,182.506012 440.221893,182.979340 
	C442.698486,182.979340 445.175079,182.979340 448.445770,182.832535 
z"/>
<path fill="#8C52FF" opacity="1.000000" stroke="none" 
	d="
M353.000000,259.000061 
	C352.936401,260.894501 352.872803,262.344360 352.809235,263.794220 
	C352.457642,264.015442 352.106049,264.236633 351.754456,264.457855 
	C350.516998,263.054779 349.391815,261.527679 348.013641,260.280090 
	C346.304871,258.733246 344.522522,257.132477 342.483307,256.160797 
	C341.790405,255.830658 340.221588,257.338715 339.053040,258.006805 
	C339.801331,259.233337 340.265167,260.983032 341.357483,261.576996 
	C343.598785,262.795746 346.271576,263.194244 348.597168,264.290253 
	C353.871002,266.775726 355.791687,270.570923 354.989136,276.286041 
	C354.395874,280.510773 350.314972,283.602600 343.896332,283.891327 
	C340.700165,284.035126 337.399994,283.298523 334.264526,282.498840 
	C333.308868,282.255096 332.010162,280.375397 332.138824,279.415192 
	C332.540314,276.419250 330.040680,272.611481 334.241425,270.518951 
	C329.474030,263.366791 329.964325,259.182281 335.212921,254.130814 
	C338.526947,250.941223 348.633484,251.527512 351.954559,254.163223 
	C352.881287,254.898712 352.682465,257.052399 353.000000,259.000061 
M338.024048,277.533691 
	C338.492584,277.995697 338.898834,278.752258 339.440857,278.866943 
	C341.417114,279.285034 343.462402,279.769897 345.429016,279.604187 
	C346.028412,279.553680 347.193298,276.986206 346.822998,276.445618 
	C345.846863,275.020508 344.332489,273.669281 342.735718,273.031525 
	C340.184113,272.012360 337.392609,271.593933 333.645355,270.657288 
	C335.310059,273.412720 336.384857,275.191742 338.024048,277.533691 
z"/>
<path fill="#8C52FF" opacity="1.000000" stroke="none" 
	d="
M267.002136,343.217377 
	C269.031372,332.859009 279.677063,330.071716 286.904449,331.116760 
	C290.073578,331.575012 292.865997,332.890076 292.066010,337.223236 
	C291.682495,339.300507 291.999969,341.507202 291.999969,345.239502 
	C290.411407,343.363831 289.493408,342.640991 289.050110,341.695557 
	C286.847229,336.996948 282.620148,334.158691 279.297760,335.303711 
	C275.598480,336.578583 273.819977,341.086090 275.002747,346.189240 
	C276.160797,351.185669 280.959259,355.659882 285.333618,354.815643 
	C287.827942,354.334259 289.966095,352.007233 292.513397,350.349365 
	C294.201385,353.905731 292.102203,357.104858 289.815063,359.450226 
	C286.458099,362.892639 281.869415,363.797424 277.112793,362.595642 
	C269.159943,360.586365 264.658203,353.937164 267.002136,343.217377 
z"/>
<path fill="#8C52FF" opacity="1.000000" stroke="none" 
	d="
M330.000000,341.999084 
	C329.999969,337.343628 330.000031,333.186737 329.999878,329.029816 
	C329.999847,328.530975 330.093414,328.009735 329.981598,327.537201 
	C329.489868,325.459564 328.115845,321.798218 328.539185,321.580200 
	C331.910309,319.844177 335.618286,318.762360 340.227386,317.122528 
	C340.227386,332.627258 340.227386,347.093567 340.227386,361.779816 
	C336.897217,361.779816 333.142242,361.779816 330.000000,361.779816 
	C330.000000,355.212128 330.000000,348.854858 330.000000,341.999084 
z"/>
<path fill="#8C52FF" opacity="1.000000" stroke="none" 
	d="
M357.000000,346.942200 
	C357.302246,352.139160 357.604492,356.845276 357.920776,361.770081 
	C353.827911,361.770081 350.072296,361.770081 347.000000,361.770081 
	C347.000000,351.314636 347.000031,341.093536 346.999969,330.872437 
	C346.999969,329.872498 347.028442,328.871582 346.993500,327.872864 
	C346.911469,325.527466 345.836975,321.868561 346.889221,321.098419 
	C349.474609,319.206299 353.033447,318.644318 357.000000,317.270447 
	C357.000000,327.583282 357.000000,337.017303 357.000000,346.942200 
z"/>
<path fill="#8C52FF" opacity="1.000000" stroke="none" 
	d="
M344.853455,179.357193 
	C344.992615,178.013428 345.315308,176.169281 345.840546,176.109695 
	C349.333099,175.713333 352.329468,172.181854 356.617065,175.358124 
	C358.146210,176.490906 362.238708,174.163391 365.676025,173.283585 
	C365.676025,176.543289 365.676025,178.952728 365.676025,181.391464 
	C355.039642,184.070938 352.822937,190.174942 358.017395,204.000000 
	C355.727997,204.000000 353.662445,204.000000 351.596924,204.000000 
	C349.472809,204.000000 347.348663,204.000000 345.130646,204.000000 
	C345.130646,195.575302 345.130646,187.628815 344.853455,179.357193 
z"/>
<path fill="#8C52FF" opacity="1.000000" stroke="none" 
	d="
M463.004761,182.231339 
	C462.280090,180.222900 461.564087,178.642670 460.561768,176.430496 
	C465.104156,175.991394 469.030426,172.370453 474.090820,175.802475 
	C476.125183,175.206879 479.124115,174.328873 482.661652,173.293182 
	C482.661652,176.519836 482.661652,178.926071 482.661652,181.528503 
	C479.141754,183.625198 472.266205,182.005829 472.981537,189.573410 
	C473.420959,194.222305 473.678070,198.888443 474.032867,203.764877 
	C470.661255,203.764877 466.574951,203.764877 463.013489,203.764877 
	C463.013489,196.675949 463.013489,189.667755 463.004761,182.231339 
z"/>
<path fill="#8C52FF" opacity="1.000000" stroke="none" 
	d="
M435.956421,326.097015 
	C434.522400,331.027252 433.525452,335.929291 426.592316,337.285553 
	C427.393463,334.647675 427.997772,332.657928 428.383759,331.386932 
	C427.177094,329.520416 425.296692,327.877289 425.208832,326.143341 
	C425.107697,324.147491 426.192657,320.666077 427.464539,320.305328 
	C430.698425,319.388062 434.616730,319.309601 435.163086,324.433441 
	C435.210358,324.876770 435.665131,325.276642 435.956421,326.097015 
z"/>
<path fill="#8C52FF" opacity="1.000000" stroke="none" 
	d="
M448.250214,168.570572 
	C449.812531,171.487564 447.994720,173.031860 446.373016,171.783691 
	C442.939423,169.140961 440.260590,165.517654 437.272186,162.296494 
	C437.591888,161.942093 437.911560,161.587677 438.231232,161.233276 
	C440.961365,161.233276 443.691528,161.233276 446.700165,161.233276 
	C447.149170,163.533691 447.604309,165.865677 448.250214,168.570572 
z"/>
<path fill="#000000" opacity="1.000000" stroke="none" 
	d="
M229.779816,367.000000 
	C156.069809,367.000000 82.829826,367.000000 7.941890,367.000000 
	C15.746094,359.766327 22.462454,353.625031 29.077122,347.376099 
	C32.630493,344.019196 35.948608,340.414093 39.480858,337.033783 
	C44.860756,331.885345 50.033726,326.446228 55.897209,321.909454 
	C58.755344,319.697998 62.899055,318.592041 66.598534,318.157257 
	C71.858559,317.539001 77.279541,317.612457 82.571281,318.077881 
	C94.873116,319.159943 105.070610,313.824158 115.309708,308.233795 
	C122.077972,304.538391 129.084625,301.279602 135.852219,297.583069 
	C140.085007,295.271057 143.895142,292.148102 148.210831,290.033875 
	C154.558929,286.923950 161.693710,289.547699 166.101166,294.929016 
	C170.433578,300.218750 175.560669,304.860840 180.374969,309.751770 
	C185.018143,314.468872 189.656601,319.192627 194.389679,323.818756 
	C199.642456,328.952850 205.086487,333.893005 210.285172,339.080078 
	C214.653091,343.438232 218.722534,348.094116 223.044601,352.500000 
	C227.555756,357.098663 232.210999,361.555969 237.743164,367.000000 
	C234.409897,367.000000 232.329865,367.000000 229.779816,367.000000 
z"/>
<path fill="#000000" opacity="1.000000" stroke="none" 
	d="
M108.305084,195.003510 
	C106.577812,196.597931 104.181320,198.188797 104.180122,199.781464 
	C104.172081,210.537140 104.597153,221.296661 105.098656,232.044830 
	C105.162224,233.407333 106.163788,235.165482 107.284149,235.960037 
	C111.254654,238.775894 115.246201,241.725861 119.631554,243.757904 
	C128.035858,247.652206 131.274155,255.160645 132.764328,263.116943 
	C134.177551,270.662384 133.776917,278.567200 133.878418,286.317810 
	C133.893845,287.496155 132.308807,288.695465 131.464035,289.885071 
	C130.314056,288.699036 128.340332,287.618652 128.172073,286.306702 
	C127.709641,282.701111 128.399872,278.945404 127.917618,275.345062 
	C126.916199,267.868927 127.896362,259.700195 122.138435,253.586349 
	C115.261024,246.283829 107.481339,240.318939 96.831131,240.036026 
	C91.512230,239.894760 87.752319,243.078583 87.083900,248.432144 
	C86.453224,253.483444 86.452179,258.609802 85.978500,263.684906 
	C84.699364,277.390015 83.417740,291.097351 81.813553,304.765839 
	C81.656631,306.102875 79.242317,308.173859 77.906807,308.150269 
	C75.648148,308.110382 74.832603,306.644348 75.549469,303.655212 
	C76.952126,297.806519 77.596069,291.711060 77.932030,285.683105 
	C79.098564,264.752655 80.312531,243.815460 80.851074,222.863922 
	C81.077988,214.035965 79.944618,205.132599 78.893410,196.327515 
	C78.269936,191.105164 81.082756,190.112442 85.010704,190.036865 
	C91.837212,189.905457 98.703239,190.440613 105.489006,189.898712 
	C116.182671,189.044724 127.156136,188.104782 135.829300,180.895203 
	C140.869843,176.705231 144.944290,171.353043 150.074509,165.858704 
	C148.814575,171.555893 146.739288,176.297272 143.162888,180.278641 
	C135.661163,188.629837 126.706093,194.117554 115.011948,194.054901 
	C112.924400,194.043701 110.833450,194.669266 108.305084,195.003510 
z"/>
<path fill="#000000" opacity="1.000000" stroke="none" 
	d="
M120.943604,292.918091 
	C119.332848,294.712646 117.882607,296.505707 116.004623,297.424103 
	C107.672607,301.498993 100.623466,308.458099 90.425072,308.843475 
	C91.987671,289.491028 93.516739,270.116730 95.214264,250.757233 
	C95.303749,249.736679 96.820702,248.841293 98.625237,246.822403 
	C104.541634,251.458328 110.650536,255.637375 115.925087,260.687805 
	C117.935349,262.612671 118.524727,266.476196 118.902527,269.561371 
	C119.835457,277.179840 120.271461,284.859131 120.943604,292.918091 
z"/>
<path fill="#000000" opacity="1.000000" stroke="none" 
	d="
M81.705551,166.215851 
	C77.846962,159.738922 79.089005,157.008102 84.047127,151.546295 
	C87.217339,148.054031 91.789368,148.181427 96.491096,151.185684 
	C100.075615,153.476074 102.157875,159.781540 100.664932,163.824799 
	C99.012291,168.300552 93.647232,171.938004 89.014908,170.835068 
	C86.470734,170.229309 84.316002,167.987854 81.705551,166.215851 
z"/>
<path fill="#000000" opacity="1.000000" stroke="none" 
	d="
M175.002533,160.000000 
	C167.095413,160.039673 159.722168,159.786880 152.733780,157.161682 
	C152.766571,156.691071 152.799377,156.220444 152.832184,155.749832 
	C163.357880,155.749832 173.883560,155.749832 184.771729,155.749832 
	C184.831635,156.618607 184.929214,158.033936 185.064774,160.000000 
	C181.693359,160.000000 178.591187,160.000000 175.002533,160.000000 
z"/>
<path fill="#000000" opacity="1.000000" stroke="none" 
	d="
M125.331825,157.000000 
	C132.524017,157.000000 139.260620,157.000000 144.722824,157.000000 
	C140.902557,159.524933 140.902557,159.524933 121.043938,157.192657 
	C122.321365,157.128448 123.598801,157.064224 125.331825,157.000000 
z"/>
<path fill="#000000" opacity="1.000000" stroke="none" 
	d="
M492.214966,182.350525 
	C493.677979,180.318878 495.072418,177.752243 496.926056,177.360962 
	C498.163116,177.099838 500.054077,179.936386 501.652405,181.386612 
	C501.400085,181.837967 501.147766,182.289337 500.895416,182.740692 
	C498.044189,182.740692 495.192932,182.740692 492.214966,182.350525 
z"/>
<path fill="#000000" opacity="1.000000" stroke="none" 
	d="
M308.746033,182.855255 
	C309.705719,180.836487 311.066620,178.928848 312.427551,177.021210 
	C314.157654,178.540955 315.887787,180.060699 317.617889,181.580444 
	C317.345917,182.042419 317.073975,182.504410 316.802002,182.966385 
	C314.250427,182.966385 311.698853,182.966385 308.746033,182.855255 
z"/>
<path fill="#000000" opacity="1.000000" stroke="none" 
	d="
M403.000000,346.167908 
	C402.614716,342.070557 403.126251,338.839386 406.902893,337.085693 
	C410.988464,339.088074 413.622925,344.176941 412.950378,348.858612 
	C412.675873,350.769592 412.815033,352.998566 411.847748,354.485504 
	C410.658508,356.313446 408.509369,357.516937 406.775146,358.990356 
	C405.523834,357.512695 403.599884,356.202698 403.179810,354.517761 
	C402.558990,352.027740 403.007050,349.271271 403.000000,346.167908 
z"/>
<path fill="#000000" opacity="1.000000" stroke="none" 
	d="
M278.651062,275.132782 
	C275.588196,269.623840 275.796021,264.311676 278.472656,259.193115 
	C279.175079,257.849854 281.080902,256.231079 282.318970,256.321136 
	C283.618591,256.415710 285.638641,258.276123 285.845428,259.599030 
	C286.548248,264.095245 287.220551,268.766510 286.713074,273.235657 
	C286.160217,278.104584 282.591675,278.845001 278.651062,275.132782 
z"/>
<path fill="#000000" opacity="1.000000" stroke="none" 
	d="
M418.998962,190.035797 
	C418.213409,193.234207 417.854889,196.236847 416.537781,198.733887 
	C414.765808,202.093323 409.910339,201.869446 409.388733,198.347260 
	C408.604950,193.054932 408.716156,187.448486 409.573273,182.158081 
	C410.152283,178.584091 413.611328,178.558167 415.566772,181.277847 
	C417.273834,183.652069 417.896973,186.805618 418.998962,190.035797 
z"/>
<path fill="#000000" opacity="1.000000" stroke="none" 
	d="
M306.146820,355.342743 
	C306.150787,349.669220 305.952271,344.352417 306.582458,339.135773 
	C306.765381,337.621460 309.320587,336.393677 310.788300,335.034546 
	C311.899872,336.487061 313.769592,337.837952 313.980530,339.411224 
	C314.606903,344.083405 315.427887,348.997009 314.604736,353.531586 
	C313.449036,359.897919 310.801453,360.306885 306.146820,355.342743 
z"/>
<path fill="#000000" opacity="1.000000" stroke="none" 
	d="
M375.602417,356.125427 
	C374.159912,355.719421 373.093781,355.179901 372.027710,354.640411 
	C373.085388,352.637390 374.143066,350.634338 375.200745,348.631287 
	C375.835175,348.830902 376.469604,349.030548 377.104034,349.230164 
	C376.728943,351.484100 376.353882,353.738037 375.602417,356.125427 
z"/>
<path fill="#000000" opacity="1.000000" stroke="none" 
	d="
M312.447144,256.233856 
	C316.325073,256.183594 317.910004,258.086578 317.914154,261.768860 
	C315.071533,261.768860 312.337006,261.768860 308.943665,261.768860 
	C310.085999,259.829224 311.092804,258.119781 312.447144,256.233856 
z"/>
<path fill="#000000" opacity="1.000000" stroke="none" 
	d="
M383.329102,182.815674 
	C380.374512,182.956787 377.818756,182.956787 375.263000,182.956787 
	C375.015198,182.564331 374.767426,182.171860 374.519653,181.779404 
	C376.228973,180.194763 377.938293,178.610107 379.647614,177.025467 
	C381.007721,178.908508 382.367828,180.791534 383.329102,182.815674 
z"/>
<path fill="#000000" opacity="1.000000" stroke="none" 
	d="
M448.048706,182.905945 
	C445.175079,182.979340 442.698486,182.979340 440.221893,182.979340 
	C439.899597,182.506012 439.577271,182.032669 439.254974,181.559341 
	C440.933838,180.048401 442.612701,178.537445 444.291565,177.026489 
	C445.676300,178.961838 447.061035,180.897186 448.048706,182.905945 
z"/>
<path fill="#000000" opacity="1.000000" stroke="none" 
	d="
M337.741852,277.252228 
	C336.384857,275.191742 335.310059,273.412720 333.645355,270.657288 
	C337.392609,271.593933 340.184113,272.012360 342.735718,273.031525 
	C344.332489,273.669281 345.846863,275.020508 346.822998,276.445618 
	C347.193298,276.986206 346.028412,279.553680 345.429016,279.604187 
	C343.462402,279.769897 341.417114,279.285034 339.440857,278.866943 
	C338.898834,278.752258 338.492584,277.995697 337.741852,277.252228 
z"/>
</svg>